<svg width="114" height="114" viewBox="0 0 114 114" fill="none" xmlns="http://www.w3.org/2000/svg">
<g filter="url(#filter0_d_1798_8954)">
<circle cx="53" cy="53" r="50" fill="white"/>
<path d="M70.1304 68.1659C61.1977 79.0317 30.2538 86.8499 19.4559 64.7688C26.923 84.5501 61.313 93.1588 86.6697 75.1632L70.1304 68.1659Z" fill="#DA291C"/>
<path d="M87.4231 30.4065C76.8854 19.9587 46.2687 19.3934 36.5627 39.1693C41.3082 33.3882 57.6523 27.314 70.8838 40.0186L87.4231 30.4065Z" fill="#3FC366"/>
<path d="M65.814 21.2522C53.2525 21.4355 27.5462 28.8719 33.4082 57.8533C34.8641 63.0703 40.6909 74.1602 54.0899 75.1632C41.7785 78.539 17.9267 77.8049 18.0002 49.1341C18.005 47.2656 18.2217 45.4006 18.7856 43.6192C22.3832 32.2543 35.5128 15.2345 65.814 21.2522Z" fill="#FFC72C"/>
</g>
<defs>
<filter id="filter0_d_1798_8954" x="0" y="0" width="114" height="114" filterUnits="userSpaceOnUse" color-interpolation-filters="sRGB">
<feFlood flood-opacity="0" result="BackgroundImageFix"/>
<feColorMatrix in="SourceAlpha" type="matrix" values="0 0 0 0 0 0 0 0 0 0 0 0 0 0 0 0 0 0 127 0" result="hardAlpha"/>
<feOffset dx="4" dy="4"/>
<feGaussianBlur stdDeviation="3.5"/>
<feComposite in2="hardAlpha" operator="out"/>
<feColorMatrix type="matrix" values="0 0 0 0 0 0 0 0 0 0 0 0 0 0 0 0 0 0 0.25 0"/>
<feBlend mode="normal" in2="BackgroundImageFix" result="effect1_dropShadow_1798_8954"/>
<feBlend mode="normal" in="SourceGraphic" in2="effect1_dropShadow_1798_8954" result="shape"/>
</filter>
</defs>
</svg>
