<svg width="53" height="58" viewBox="0 0 53 58" fill="none" xmlns="http://www.w3.org/2000/svg">
<path d="M6.9704 30.3544V26.9633C6.9704 26.7561 7.08591 26.5561 7.29053 26.4085C7.49515 26.2608 7.77237 26.1775 8.0628 26.1775H11.0166C11.6073 26.1894 12.076 26.5394 12.076 26.9633C12.076 27.3896 11.6073 27.7396 11.0166 27.7516H9.15523V30.3544C9.13873 30.7806 8.65358 31.1188 8.06609 31.1188C7.47534 31.1188 6.99022 30.7806 6.97366 30.3544L6.9704 30.3544ZM18.0037 31.1426C18.6076 31.1426 19.0961 30.7902 19.0961 30.3567V27.7516H20.9575C21.2512 27.7587 21.5383 27.6777 21.7495 27.5301C21.9608 27.3801 22.0796 27.1777 22.0796 26.9633C22.0796 26.7514 21.9608 26.549 21.7495 26.399C21.5383 26.2513 21.2512 26.1703 20.9575 26.1775H18.0037C17.403 26.1775 16.9145 26.5299 16.9145 26.9634V30.3544C16.9145 30.564 17.0268 30.764 17.2314 30.9116C17.436 31.0593 17.7166 31.1426 18.0037 31.1426ZM8.06282 39.0464C8.35325 39.0464 8.63048 38.9631 8.8351 38.8154C9.03972 38.6678 9.15523 38.4678 9.15523 38.2582V35.6554H11.0166C11.6073 35.6435 12.0793 35.2958 12.0793 34.8695C12.0793 34.4432 11.6073 34.0932 11.0166 34.0813H8.0628H8.0661C7.46215 34.0813 6.97367 34.4337 6.97367 34.8695V38.2582C6.97367 38.6916 7.46213 39.0441 8.06282 39.0464ZM18.0037 39.0464C18.2941 39.0464 18.5713 38.9631 18.776 38.8154C18.9806 38.6678 19.0961 38.4678 19.0961 38.2582V35.6554H20.9574C21.2512 35.6625 21.5383 35.5816 21.7495 35.4339C21.9607 35.2863 22.0795 35.0815 22.0795 34.8695C22.0795 34.6576 21.9607 34.4528 21.7495 34.3052C21.5383 34.1551 21.2512 34.0766 20.9574 34.0813H18.0037C17.7165 34.0813 17.4393 34.1647 17.2347 34.3123C17.0301 34.46 16.9145 34.66 16.9145 34.8695V38.2582C16.9145 38.4678 17.0301 38.6678 17.2347 38.8155C17.4393 38.9631 17.7165 39.0464 18.0037 39.0464ZM8.06282 46.9502C8.35325 46.9502 8.63048 46.8693 8.8351 46.7216C9.03972 46.574 9.15523 46.3716 9.15523 46.1644V43.5616H11.0166C11.6073 43.5497 12.0793 43.1996 12.0793 42.7757C12.0793 42.3495 11.6073 41.9994 11.0166 41.9875H8.0628H8.0661C7.77567 41.9875 7.49844 42.0708 7.29383 42.2185C7.08921 42.3661 6.97369 42.5661 6.97369 42.7733V46.1644C6.97369 46.5978 7.46213 46.9502 8.06282 46.9502ZM18.0037 46.9502C18.6076 46.9502 19.0961 46.5978 19.0961 46.1644V43.5616H20.9575C21.2512 43.5687 21.5383 43.4878 21.7495 43.3401C21.9608 43.1901 22.0796 42.9877 22.0796 42.7757C22.0796 42.5614 21.9608 42.359 21.7495 42.209C21.5383 42.0613 21.2512 41.9804 20.9575 41.9875H18.0037C17.403 41.9875 16.9145 42.3399 16.9145 42.7734V46.1644C16.9145 46.5978 17.403 46.9502 18.0037 46.9502ZM52.2906 16.0592V53.3989C52.2873 53.7227 52.0134 54.0133 51.5942 54.1323L38.6997 57.7401C38.5743 57.7758 38.4422 57.7949 38.3069 57.7949H1.08914C0.488476 57.7949 0 57.4424 0 57.0066V22.0055C0 21.5721 0.488443 21.2196 1.08914 21.2196H7.89439V5.95516C7.89439 5.60271 8.22112 5.29078 8.69637 5.19788L34.5539 0.0279325C34.8806 -0.0363649 35.2338 0.0112635 35.5044 0.161288C35.5209 0.170814 35.5374 0.182721 35.5539 0.192246L43.8641 5.36219L43.8674 5.35981C44.105 5.50983 44.2436 5.72654 44.2436 5.95753V14.6685L51.3195 15.2757L51.3228 15.2781C51.8739 15.3234 52.2906 15.6592 52.2906 16.0592ZM10.0762 21.2196H23.2969V16.0592C23.2969 15.6568 23.7127 15.321 24.2671 15.2757L33.7526 14.5232V1.821L10.0765 6.55512L10.0762 21.2196ZM16.5679 50.1434H12.459V56.2182H16.5679V50.1434ZM26.8383 22.7936H2.18128V56.2207H10.2736V49.3527C10.2736 48.9193 10.7621 48.5668 11.3628 48.5668H17.6531C17.9436 48.5668 18.2208 48.6501 18.4254 48.7978C18.63 48.9454 18.7455 49.1455 18.7455 49.3526V56.2183H26.8379L26.8383 22.7936ZM27.9274 21.2196H27.9307C28.2178 21.2196 28.495 21.3029 28.6997 21.4506C28.9043 21.5982 29.0198 21.7983 29.0198 22.0054V56.2208H37.2145V15.8305L25.4748 16.764V21.2195L27.9274 21.2196ZM42.0622 14.4826V6.31664L35.9336 2.50409V14.3491L38.1844 14.1705C38.2669 14.1634 38.3494 14.1634 38.4319 14.1705L42.0622 14.4826ZM50.1018 16.7592L39.3921 15.8376V55.8566L50.1018 52.8584V16.7592Z" fill="white"/>
</svg>
