<svg width="61" height="63" viewBox="0 0 61 63" fill="none" xmlns="http://www.w3.org/2000/svg">
<path d="M38.06 39.9421H46.5178C51.4498 39.9421 55.5095 37.948 57.3838 34.6033C59.0252 31.6712 58.7423 28.1479 56.5803 24.6824C53.5223 19.7771 51.2783 16.0488 50.2237 14.2779H50.2211C51.2836 13.6736 51.8968 12.5097 51.7937 11.2958C51.688 10.082 50.8871 9.03889 49.7347 8.62114C50.6493 7.60436 51.7884 6.3248 52.4386 5.56812C53.0306 4.90077 53.1998 3.96019 52.8747 3.13255C52.5099 2.28393 51.6959 1.71376 50.7708 1.66385C50.3585 1.6586 49.9488 1.71903 49.5576 1.85039C48.8122 2.13152 47.9955 2.17093 47.2264 1.96337C46.3701 1.57715 45.5375 1.13573 44.7393 0.644462C43.2671 -0.238331 41.4169 -0.212033 39.9711 0.710146C39.202 1.22773 38.3615 1.63235 37.4787 1.91613C36.5748 2.08428 35.6471 2.03961 34.7643 1.78738C34.455 1.70068 34.1326 1.65864 33.8101 1.6639C32.8877 1.71645 32.0762 2.28133 31.7115 3.12473C31.3811 3.95499 31.5476 4.89556 32.137 5.56554C32.7714 6.31173 33.8893 7.56499 34.7986 8.5739C33.5564 8.95749 32.6789 10.0557 32.5864 11.3431C32.4939 12.6332 33.2075 13.8444 34.381 14.3962C33.4717 16.1328 31.5661 19.6955 28.6851 24.7058C26.4623 28.5707 26.1662 32.2935 27.8552 35.181C29.6181 38.2077 33.3395 39.9421 38.06 39.9421ZM33.6672 3.92347C33.7174 3.83939 33.802 3.77897 33.9024 3.76057C33.9976 3.77108 34.1403 3.80261 34.32 3.84202H34.3174C35.5411 4.18095 36.8309 4.21247 38.0706 3.93397C39.1516 3.59504 40.1771 3.10371 41.118 2.47577C41.8872 1.99759 42.8598 1.98182 43.6396 2.44161C44.5197 2.98285 45.4368 3.46626 46.3804 3.88926C47.5804 4.30964 48.8887 4.30701 50.0887 3.884C50.2816 3.83408 50.5486 3.76577 50.583 3.75789C50.7151 3.75264 50.842 3.81569 50.916 3.92604C50.9398 4.02851 50.9081 4.13623 50.8288 4.20717C49.8984 5.29491 47.8659 7.55183 47.0862 8.41357H37.4916C36.7119 7.55183 34.6741 5.29491 33.7517 4.20979V4.21242C33.6724 4.13885 33.6408 4.02856 33.6672 3.92347ZM35.7499 10.5155H48.6322C49.2163 10.5155 49.6895 10.9858 49.6895 11.5665C49.6895 12.1471 49.2163 12.6174 48.6322 12.6174H35.7499C35.1658 12.6174 34.6927 12.1471 34.6927 11.5665C34.6927 10.9858 35.1658 10.5155 35.7499 10.5155ZM30.5192 25.7487C33.8363 19.9764 35.8715 16.1089 36.5931 14.7193H48.0267C48.8514 16.1092 51.2909 20.1947 54.7824 25.791C56.5189 28.5787 56.7885 31.3453 55.5357 33.5812C54.0398 36.2479 50.6698 37.8401 46.5176 37.8401H38.0598C34.1137 37.8401 31.058 36.487 29.6811 34.1276C28.3886 31.9154 28.6875 28.9383 30.5192 25.7487ZM41.2316 26.2794V28.3813H40.1744C39.5903 28.3813 39.1171 28.8516 39.1171 29.4322C39.1171 30.0129 39.5903 30.4832 40.1744 30.4832H41.2316C41.2316 31.0638 41.7047 31.5341 42.2888 31.5341C42.873 31.5341 43.3461 31.0638 43.3461 30.4832C45.0984 30.4832 46.5178 29.0723 46.5178 27.3303C46.5178 25.5884 45.0984 24.1775 43.3461 24.1775V22.0756H44.4033C44.9874 22.0756 45.4605 21.6053 45.4605 21.0247C45.4605 20.444 44.9874 19.9737 44.4033 19.9737H43.3461C43.3461 19.3931 42.873 18.9228 42.2888 18.9228C41.7047 18.9228 41.2316 19.3931 41.2316 19.9737C39.4793 19.9737 38.0599 21.3847 38.0599 23.1266C38.0599 24.8685 39.4793 26.2794 41.2316 26.2794ZM44.4033 27.3303C44.3346 27.8795 43.8985 28.3129 43.3461 28.3813V26.2794C43.8985 26.3477 44.3346 26.7812 44.4033 27.3303ZM41.2316 22.0756V24.1775C40.6792 24.1092 40.2431 23.6757 40.1744 23.1266C40.2431 22.5774 40.6792 22.144 41.2316 22.0756ZM60.6346 43.8041C60.1165 42.5508 59.1122 41.5577 57.8488 41.048C56.5854 40.5356 55.1687 40.554 53.9185 41.0926C53.2947 41.3396 51.4737 42.2749 48.5531 43.7804C45.9285 45.1335 42.8123 46.7414 40.9119 47.6322L40.9093 47.6348C40.6053 46.04 39.5402 44.6948 38.0547 44.0248L20.9543 35.4255C19.2231 34.6558 17.2513 34.619 15.4911 35.3178L10.5723 36.5028V33.6363C10.5723 33.3578 10.4613 33.0898 10.2631 32.8927C10.0649 32.6957 9.79526 32.5853 9.51508 32.5853H1.05723C0.473112 32.5853 0 33.0556 0 33.6363V57.8083C0 58.0868 0.111008 58.3548 0.309239 58.5519C0.507471 58.749 0.777066 58.8593 1.05725 58.8593H9.5151C9.79526 58.8593 10.0649 58.749 10.2631 58.5519C10.4614 58.3549 10.5723 58.0869 10.5723 57.8083V54.8814C13.2921 55.3728 15.9854 56.0086 18.6391 56.7863L32.0235 62.062C33.4243 62.6821 34.9388 63.0026 36.4718 63C38.5307 62.9947 40.55 62.4351 42.3129 61.3789C45.6115 59.3979 59.8843 49.2276 60.5447 47.7559H60.542C61.1182 46.5079 61.1526 45.0784 60.6346 43.8041ZM8.4578 56.7571H2.11442V34.6876H8.4578V56.7571ZM58.6473 46.8207C57.5373 48.0976 45.4504 57.0383 41.2215 59.5794C38.6867 61.1111 35.5573 61.316 32.8428 60.1259L19.4185 54.8317C16.5111 53.9726 13.5561 53.2737 10.5723 52.7377V38.6655L16.0619 37.3413C16.1122 37.3307 16.1597 37.315 16.21 37.294C17.439 36.7843 18.824 36.7948 20.0477 37.3229L37.1481 45.9221C38.3613 46.4791 39.0643 47.7639 38.8714 49.0802C38.8688 49.096 38.8635 49.1459 38.8635 49.1564V49.1538C38.8476 49.4822 38.7816 49.8027 38.6706 50.1101C38.3851 50.8931 37.8089 51.5368 37.0609 51.9099C36.3394 52.2646 35.5041 52.3119 34.7482 52.0413L24.226 48.2184C23.6762 48.0188 23.0683 48.2999 22.8674 48.8464C22.6666 49.3902 22.9494 49.9945 23.4991 50.1942L34.0214 54.017H34.0187C34.5685 54.2167 35.1473 54.3192 35.7314 54.3192C36.5137 54.3165 37.2829 54.1379 37.9859 53.8016C39.5189 53.0554 40.5973 51.6235 40.8881 49.9525C42.6668 49.1827 46.2879 47.3172 49.5259 45.6462C51.902 44.4219 54.146 43.2658 54.7036 43.0425C55.4331 42.7089 56.271 42.6826 57.0216 42.9768C57.7723 43.2685 58.3696 43.8518 58.6762 44.5926C58.9669 45.3073 58.9566 46.1113 58.6473 46.8207Z" fill="white"/>
</svg>
