<svg width="60" height="60" viewBox="0 0 60 60" fill="none" xmlns="http://www.w3.org/2000/svg">
<path d="M20.7497 25C20.4274 25.0176 20.1065 24.9457 19.8226 24.7923C19.5386 24.6389 19.3026 24.41 19.1406 24.1308C18.9786 23.8516 18.897 23.5331 18.9048 23.2104C18.9126 22.8878 19.0094 22.5735 19.1847 22.3025L28.4997 7.5C28.646 7.23642 28.858 7.01513 29.1151 6.85758C29.3721 6.70002 29.6655 6.61155 29.9668 6.60074C30.2681 6.58992 30.5671 6.65713 30.8348 6.79585C31.1025 6.93457 31.3298 7.1401 31.4947 7.3925L40.7497 22.25C40.9321 22.512 41.0394 22.8189 41.0599 23.1374C41.0804 23.456 41.0134 23.7741 40.8662 24.0574C40.7189 24.3406 40.4969 24.5782 40.2243 24.7443C39.9517 24.9105 39.6389 24.9989 39.3197 25H20.7497Z" stroke="white" stroke-width="2" stroke-linecap="round" stroke-linejoin="round"/>
<path d="M22.5 35H10C8.61929 35 7.5 36.1193 7.5 37.5V50C7.5 51.3807 8.61929 52.5 10 52.5H22.5C23.8807 52.5 25 51.3807 25 50V37.5C25 36.1193 23.8807 35 22.5 35Z" stroke="white" stroke-width="2" stroke-linecap="round" stroke-linejoin="round"/>
<path d="M43.75 52.5C48.5825 52.5 52.5 48.5825 52.5 43.75C52.5 38.9175 48.5825 35 43.75 35C38.9175 35 35 38.9175 35 43.75C35 48.5825 38.9175 52.5 43.75 52.5Z" stroke="white" stroke-width="2" stroke-linecap="round" stroke-linejoin="round"/>
</svg>
