<svg width="61" height="66" viewBox="0 0 61 66" fill="none" xmlns="http://www.w3.org/2000/svg">
<path d="M33.9929 52.8374L39.7492 43.8614H53.2492C53.7289 43.8614 54.2086 43.6547 54.4816 43.3128C54.7546 42.9709 54.8924 42.5601 54.8924 42.0804V39.6131C54.8924 38.6537 54.1397 37.901 53.1804 37.901L31.1833 37.8984V22.1378C32.6224 21.931 34.0615 21.2473 35.2965 20.1501C36.5288 21.4514 38.1057 22.1378 39.7515 22.2066H40.0245C41.7365 22.2066 43.4513 21.5202 44.8903 20.2189C46.1227 21.4513 47.6307 22.1377 49.2765 22.2066C51.333 22.2755 53.3207 21.3851 54.9638 19.6703C55.1017 19.5325 55.1706 19.3284 55.1706 19.1217C54.2112 8.43055 43.4515 0 30.497 0C17.5452 0 6.78548 8.43055 5.96387 19.1217C5.96387 19.3285 6.03277 19.4636 6.10168 19.6014C7.33403 21.1783 9.11764 22.0688 11.0364 22.1377H11.3094C13.0214 22.1377 14.7361 21.4513 16.1752 20.15C17.4076 21.3824 18.9156 22.0688 20.5613 22.1377H20.8343C22.6153 22.1377 24.3299 21.4513 25.769 20.0812C26.9352 21.2473 28.3742 21.9999 29.9485 22.0688V37.8987H7.67868C6.71927 37.8987 5.96665 38.6514 5.96665 39.6107V42.0781C5.96665 43.0375 6.71933 43.7901 7.67868 43.7901H21.2479L27.0731 52.8353L19.3264 64.9682C19.1886 65.175 19.1886 65.4479 19.3264 65.6546C19.4642 65.8613 19.6683 65.9965 19.9439 65.9965H25.2894C25.4962 65.9965 25.7691 65.8587 25.838 65.6546L29.8134 59.4876V65.2439C29.8134 65.6547 30.0864 65.9303 30.4998 65.9303C30.9106 65.9303 31.1862 65.6573 31.1862 65.2439V59.2808L35.2994 65.6546C35.4372 65.8614 35.6413 65.9965 35.848 65.9965H41.1935C41.4665 65.9965 41.6732 65.8587 41.811 65.6546C41.9488 65.4479 41.9488 65.1749 41.811 64.9682L33.9929 52.8374ZM26.249 18.7794C26.1111 18.5726 25.9071 18.5064 25.7004 18.5064C25.4936 18.5064 25.2896 18.5753 25.1518 18.7131C23.8505 20.1522 22.2047 20.8386 20.5589 20.8386C19.1198 20.7697 17.8186 20.1522 16.8592 18.9887C16.7903 18.9198 16.7903 18.782 16.7214 18.7157C16.5836 18.5779 16.4484 18.509 16.2417 18.509H16.1728C16.035 18.509 15.8998 18.5779 15.762 18.6468C15.6931 18.7157 15.6242 18.7846 15.5553 18.9198C14.254 20.2211 12.7461 20.9075 11.1003 20.8386C9.66117 20.7696 8.35988 20.1522 7.40054 18.9887C8.22473 9.04786 18.3672 1.36972 30.4974 1.36972C42.4206 1.36972 52.7013 9.2514 53.6607 18.914C52.3594 20.2153 50.8515 20.8328 49.2746 20.7639C47.8355 20.695 46.5342 20.0775 45.5749 18.914C45.506 18.8451 45.506 18.7073 45.4371 18.6411C45.2992 18.5033 45.1641 18.4343 44.9574 18.4343H44.8885C44.7507 18.4343 44.6155 18.5032 44.4777 18.5721C44.4088 18.6411 44.3399 18.71 44.271 18.8451C42.9697 20.1464 41.3928 20.8328 39.8159 20.7639C38.3079 20.695 36.9377 20.0112 35.9095 18.7073C35.7717 18.5006 35.4987 18.4344 35.292 18.4344C35.0852 18.4344 34.8812 18.5033 34.7434 18.6411C33.4421 20.0802 31.7963 20.7666 30.1505 20.7666C28.6479 20.7639 27.2772 20.0117 26.249 18.7794ZM7.33415 42.1462V39.6789C7.33415 39.5411 7.54087 39.337 7.67604 39.337H53.1831C53.3209 39.337 53.525 39.5437 53.525 39.6789V42.1462V42.2151C53.525 42.284 53.525 42.3529 53.4561 42.4219C53.3872 42.4908 53.3183 42.4908 53.2494 42.4908H7.67852C7.54071 42.4908 7.33415 42.284 7.33415 42.1462ZM28.1676 43.8609H29.7445V46.2594L28.1676 43.8609ZM31.1147 43.8609H32.8268L31.1147 46.5323V43.8609ZM22.8219 43.8609H26.5216L29.6727 48.7267L27.8255 51.6049L22.8219 43.8609ZM24.8785 64.6252H21.1788L34.4752 43.8609H38.1749L24.8785 64.6252ZM36.1178 64.6252L31.252 57.0882L33.1707 54.1411L39.8176 64.6253L36.1178 64.6252Z" fill="white"/>
<path d="M13.3655 50.3028H0.686399C0.275611 50.3028 0 50.5758 0 50.9892V53.5944C0 53.8011 0.137809 54.0051 0.272972 54.143V65.3138C0.272972 65.7246 0.545944 66.0002 0.95937 66.0002H13.0896C13.5004 66.0002 13.776 65.7272 13.776 65.3138V54.1402C13.9138 54.0024 14.0489 53.7984 14.0489 53.5916V50.9865C14.0489 50.5757 13.7762 50.3028 13.3655 50.3028ZM12.6791 51.673V52.8364H1.3732V51.6702L12.6791 51.673ZM1.64595 64.6248V54.2755H12.4057V64.6248H1.64595Z" fill="white"/>
<path d="M59.6233 50.3027H46.9442C46.5334 50.3027 46.2578 50.5757 46.2578 50.9891V53.5943C46.2578 53.801 46.3956 54.0051 46.5308 54.1429V65.3137C46.5308 65.7245 46.8038 66.0001 47.2172 66.0001L59.3501 65.9948C59.7609 65.9948 60.0365 65.7219 60.0365 65.3084L60.0338 54.1403C60.1716 54.0025 60.3068 53.7984 60.3068 53.5917V50.9865C60.3095 50.5758 60.0341 50.3027 59.6233 50.3027ZM58.9395 51.6729V52.8363H47.6309V51.6702L58.9395 51.6729ZM47.9064 64.6247V54.2755H58.6634V64.6247H47.9064Z" fill="white"/>
</svg>
