<svg width="64" height="64" viewBox="0 0 64 64" fill="none" xmlns="http://www.w3.org/2000/svg">
<path d="M63.6617 54.0389C63.6617 51.0579 61.2371 48.6333 58.2561 48.6333C55.2752 48.6333 52.8506 51.0579 52.8506 54.0389C52.8506 57.0198 55.2752 59.4444 58.2561 59.4444C61.2371 59.4444 63.6617 57.0198 63.6617 54.0389ZM54.4421 54.0389C54.4421 51.9376 56.1517 50.2248 58.2561 50.2248C60.3606 50.2248 62.0702 51.9344 62.0702 54.0389C62.0702 56.1433 60.3606 57.8529 58.2561 57.8529C56.1517 57.8529 54.4421 56.1433 54.4421 54.0389Z" fill="white"/>
<path d="M23.387 32.7218C26.368 32.7218 28.7926 30.2972 28.7926 27.3162C28.7926 24.3352 26.368 21.9106 23.387 21.9106C20.406 21.9106 17.9814 24.3352 17.9814 27.3162C17.9814 30.2972 20.406 32.7218 23.387 32.7218ZM23.387 23.5022C25.4914 23.5022 27.201 25.2118 27.201 27.3162C27.201 29.4207 25.4914 31.1302 23.387 31.1302C21.2857 31.1302 19.573 29.4207 19.573 27.3162C19.573 25.2118 21.2825 23.5022 23.387 23.5022Z" fill="white"/>
<path d="M30.25 51.1016C30.0573 50.9027 29.7744 50.8219 29.5071 50.884L25.7056 51.745L22.3951 49.6935C22.1588 49.5474 21.8666 49.535 21.6211 49.6562C21.3755 49.7805 21.2108 50.023 21.1828 50.2965L20.8284 54.1758L17.8506 56.6906C17.6392 56.8678 17.5366 57.1444 17.577 57.4148C17.6174 57.6884 17.7977 57.9184 18.0495 58.0303L21.6304 59.5659L23.1038 63.1716C23.2095 63.4265 23.4364 63.6099 23.7068 63.6565C23.7504 63.6627 23.7939 63.6689 23.8374 63.6689C24.0643 63.6689 24.285 63.5726 24.4342 63.3985L27.0018 60.4704L30.8873 60.1844C31.1608 60.1657 31.4064 60.0041 31.5338 59.7585C31.6613 59.513 31.652 59.2208 31.5121 58.9845L29.5196 55.6399L30.449 51.8601C30.5143 51.5928 30.4366 51.3099 30.2439 51.1141L30.25 51.1016ZM26.5635 58.9006C26.3552 58.9162 26.1625 59.0125 26.0226 59.168L24.086 61.3749L22.9795 58.6581C22.9018 58.4654 22.7495 58.31 22.5567 58.2292L19.8586 57.0729L22.1029 55.1798C22.2614 55.0462 22.364 54.8534 22.3827 54.6452L22.65 51.7233L25.1429 53.2712C25.3232 53.3831 25.5346 53.4173 25.7397 53.3707L28.6026 52.7242L27.9032 55.5714C27.8535 55.7766 27.8846 55.988 27.9903 56.1683L29.4916 58.6892L26.5635 58.9037L26.5635 58.9006Z" fill="white"/>
<path d="M42.1794 30.8505L47.0317 31.6027L49.966 35.5442C50.1152 35.7462 50.3546 35.8643 50.6033 35.8643C50.625 35.8643 50.6499 35.8643 50.6716 35.8612C50.9452 35.8364 51.1876 35.6747 51.312 35.426L53.522 31.0432L58.1722 29.4734C58.4334 29.3864 58.6292 29.1688 58.6914 28.9015C58.7535 28.6341 58.6727 28.3513 58.4769 28.1554L54.9892 24.6957L54.9302 19.7844C54.9271 19.5078 54.781 19.256 54.5447 19.113C54.3085 18.97 54.0163 18.9638 53.7707 19.0882L49.4065 21.3324L44.7191 19.8684C44.4579 19.7845 44.1689 19.8466 43.9606 20.0269C43.7523 20.2072 43.6529 20.4839 43.6964 20.7543L44.4859 25.6034L41.648 29.6102C41.4863 29.834 41.4552 30.1262 41.564 30.3811C41.6697 30.636 41.9028 30.8163 42.1733 30.8567L42.1794 30.8505ZM45.9779 26.2501C46.0991 26.0791 46.1488 25.8677 46.1146 25.6626L45.4805 21.7647L49.2479 22.9428C49.4438 23.005 49.6614 22.9863 49.8479 22.8931L53.3604 21.0871L53.407 25.0378C53.4101 25.2461 53.4941 25.445 53.6433 25.5943L56.447 28.3794L52.7045 29.6414C52.5056 29.7098 52.344 29.8496 52.2507 30.0361L50.4727 33.5611L48.1134 30.3936C47.9891 30.2257 47.8026 30.1138 47.5974 30.0828L43.6933 29.4797L45.9749 26.2594L45.9779 26.2501Z" fill="white"/>
<path d="M0.33758 8.91367L4.34118 11.7548L5.20218 16.5914C5.25191 16.8618 5.43531 17.0888 5.69331 17.1913C5.78657 17.2286 5.88604 17.2473 5.9855 17.2473C6.15336 17.2473 6.32122 17.1945 6.46109 17.0888L10.3994 14.1575L15.261 14.8321C15.5314 14.8725 15.8081 14.7637 15.9822 14.5523C16.1562 14.3409 16.2122 14.0518 16.122 13.7907L14.5492 9.13742L16.694 4.71724C16.8152 4.46857 16.7996 4.17638 16.6504 3.94325C16.5012 3.71011 16.2463 3.59199 15.9697 3.57335L11.0615 3.6293L7.52412 0.22252C7.32518 0.0297964 7.04232 -0.0416941 6.77499 0.0235816C6.50766 0.0919662 6.2963 0.29401 6.21237 0.558232L4.75144 5.2457L0.421431 7.55832C0.178973 7.68887 0.0204426 7.93444 0.00179806 8.21108C-0.0168528 8.48773 0.110593 8.75195 0.33751 8.91048L0.33758 8.91367ZM5.79287 6.4984C5.97627 6.39893 6.11614 6.23419 6.17832 6.03214L7.35333 2.26162L10.1975 5.00012C10.3467 5.14311 10.555 5.19285 10.757 5.22393L14.7047 5.18041L12.9795 8.73329C12.8862 8.9198 12.8738 9.13738 12.9422 9.33632L14.2073 13.0788L10.2969 12.5349C10.0917 12.5038 9.88032 12.5597 9.71247 12.6841L6.54808 15.0402L5.8549 11.1516C5.8176 10.9464 5.70259 10.7631 5.53163 10.6418L2.31129 8.35714L5.79582 6.49524L5.79287 6.4984Z" fill="white"/>
<path d="M39.6562 22.2214C40.0758 22.0908 40.312 21.6463 40.1846 21.2267C40.054 20.8071 39.6126 20.5677 39.1899 20.6983C33.4828 22.4576 30.1939 28.289 31.8634 33.6977L32.1338 34.5743C33.4984 39.0815 30.4957 44.1639 25.544 45.6902C23.5795 46.3336 21.3477 46.3243 19.2775 45.7897C20.1479 44.2696 20.7105 42.6066 20.8379 40.9561C21.0244 38.6062 19.8712 36.3681 17.9066 35.2615C16.7441 34.6056 15.5753 34.4409 14.4376 34.7673C13.1072 35.1496 12.1187 36.191 11.5716 37.7762C10.8909 39.7594 11.3105 41.9353 12.6938 43.5951C13.7693 44.8851 15.1992 45.9109 16.8094 46.6227C15.4323 48.3323 13.5952 49.6846 11.6059 50.2969C8.81451 51.1548 6.27804 52.9546 4.64301 55.233C2.85877 57.7229 2.31169 60.5142 3.10744 63.0973C3.21313 63.4392 3.52708 63.6568 3.869 63.6568C3.94671 63.6568 4.02442 63.6444 4.10525 63.6226C4.52488 63.4921 4.76112 63.0476 4.63057 62.6279C3.98402 60.5329 4.45029 58.2358 5.93919 56.1593C7.37528 54.1575 9.61334 52.5753 12.0752 51.8169C14.5122 51.0647 16.744 49.3488 18.3541 47.1947C20.8471 47.95 23.5918 48.0029 26.0257 47.2071C31.7763 45.4353 35.258 39.4641 33.6631 34.1393L33.6538 34.1113C33.6506 34.0989 33.6475 34.0833 33.6413 34.0709L33.6351 34.0584L33.3802 33.2316C31.9721 28.6591 34.7852 23.7199 39.653 22.2215L39.6562 22.2214ZM19.2522 40.8349C19.1341 42.3611 18.5902 43.8936 17.7478 45.2862C16.234 44.6676 14.888 43.7444 13.9182 42.5788C12.8924 41.3478 12.5785 39.747 13.0758 38.2954C13.4489 37.2074 14.055 36.536 14.8756 36.2998C15.1025 36.2345 15.3356 36.2003 15.5688 36.2003C16.0723 36.2003 16.5946 36.3495 17.123 36.6479C18.5715 37.4654 19.3859 39.0694 19.2491 40.8318L19.2522 40.8349Z" fill="white"/>
<path d="M51.1227 0.866365C51.16 0.42808 50.8367 0.0426 50.4015 0.00535877C49.9601 -0.0381586 49.5747 0.288225 49.5374 0.72651C49.4784 1.37617 47.9211 16.3121 31.0767 16.3121C30.7099 16.3121 30.3338 16.3059 29.9546 16.2904C12.8148 15.6221 10.1729 29.1498 10.1475 29.2866C10.0666 29.7187 10.3526 30.1321 10.7878 30.2099C10.8375 30.2192 10.8841 30.2223 10.9308 30.2223C11.3069 30.2223 11.6395 29.955 11.7141 29.5695C11.8074 29.066 14.2008 17.2696 29.8987 17.8791C49.3453 18.65 51.1103 1.04415 51.1294 0.869881L51.1227 0.866365Z" fill="white"/>
<path d="M60.4169 21.2056C60.0253 21.4077 59.876 21.8895 60.075 22.2781C60.1123 22.3527 63.8983 29.8035 61.0386 35.2775C59.3973 38.417 55.8506 40.3629 50.5012 41.0622C44.6667 41.8238 40.5949 44.1085 38.4002 47.8448C34.5799 54.3538 37.8717 62.8057 38.0147 63.163C38.1391 63.4739 38.4375 63.6635 38.7545 63.6635C38.854 63.6635 38.9535 63.6448 39.0467 63.6075C39.4539 63.4459 39.656 62.9827 39.4943 62.5755C39.4632 62.4947 36.3486 54.4747 39.7772 48.6466C41.7106 45.358 45.3879 43.3375 50.7061 42.6412C56.6059 41.8703 60.5567 39.6385 62.4498 36.0078C65.6919 29.7972 61.6603 21.88 61.4862 21.5474C61.2842 21.1558 60.8055 21.0065 60.4138 21.2086L60.4169 21.2056Z" fill="white"/>
<path d="M32.2016 0.00244141C31.7602 0.00244141 31.4058 0.356798 31.4058 0.798195V3.27251H28.9315C28.4901 3.27251 28.1357 3.62687 28.1357 4.06826C28.1357 4.50966 28.4901 4.86402 28.9315 4.86402H31.4058V7.33833C31.4058 7.77973 31.7602 8.13409 32.2016 8.13409C32.643 8.13409 32.9973 7.77973 32.9973 7.33833V4.86402H35.4716C35.913 4.86402 36.2674 4.50966 36.2674 4.06826C36.2674 3.62687 35.913 3.27251 35.4716 3.27251H32.9973V0.798195C32.9973 0.356798 32.643 0.00244141 32.2016 0.00244141Z" fill="white"/>
<path d="M61.9217 6.53604C61.9217 6.09464 61.5673 5.74029 61.1259 5.74029H58.6516V3.26597C58.6516 2.82457 58.2973 2.47021 57.8559 2.47021C57.4145 2.47021 57.0601 2.82457 57.0601 3.26597V5.74029H54.5858C54.1444 5.74029 53.79 6.09464 53.79 6.53604C53.79 6.97744 54.1444 7.33179 54.5858 7.33179H57.0601V9.80611C57.0601 10.2475 57.4145 10.6019 57.8559 10.6019C58.2973 10.6019 58.6516 10.2475 58.6516 9.80611V7.33179H61.1259C61.5673 7.33179 61.9217 6.97744 61.9217 6.53604Z" fill="white"/>
<path d="M0.837746 34.0208H3.31206V36.4951C3.31206 36.9365 3.66642 37.2908 4.10782 37.2908C4.54921 37.2908 4.90357 36.9365 4.90357 36.4951V34.0208H7.37788C7.81928 34.0208 8.17364 33.6664 8.17364 33.225C8.17364 32.7836 7.81928 32.4293 7.37788 32.4293H4.90357V29.9549C4.90357 29.5135 4.54921 29.1592 4.10782 29.1592C3.66642 29.1592 3.31206 29.5135 3.31206 29.9549V32.4293H0.837746C0.396349 32.4293 0.0419922 32.7836 0.0419922 33.225C0.0419922 33.6664 0.396349 34.0208 0.837746 34.0208Z" fill="white"/>
</svg>
