<svg width="64" height="54" viewBox="0 0 64 54" fill="none" xmlns="http://www.w3.org/2000/svg">
<path d="M0 32.0004C0.007812 37.8324 2.3281 43.4264 6.4492 47.5514C10.5742 51.6725 16.168 53.9928 22.0002 54.0006C23.1408 54.0045 24.2775 53.9147 25.4025 53.735C28.0822 53.3248 30.6603 52.4108 33.0041 51.0514C33.0666 51.0162 33.1174 50.9694 33.1799 50.9303L33.2189 50.903L33.215 50.9069C35.0509 49.8288 36.7111 48.485 38.1447 46.9225C41.8283 42.9498 43.9142 37.7545 43.9963 32.3405C44.0823 26.9264 42.1604 21.6685 38.6057 17.5865C37.8792 16.7544 36.6135 16.6685 35.7815 17.395C34.9534 18.1216 34.8675 19.3872 35.594 20.2192C38.5042 23.563 40.0706 27.8637 39.9963 32.2932C39.926 36.7229 38.2151 40.9729 35.1955 44.2192C34.2424 45.2426 33.1643 46.1489 31.9924 46.9106C26.8244 43.4653 23.8049 37.5903 24.008 31.3836C24.2151 25.1727 27.6135 19.5126 33.0002 16.4146C34.926 15.2935 37.0471 14.5513 39.2541 14.231C40.1604 14.0709 41.0783 13.9967 42.0002 14.0006C48.4299 14.0006 54.3752 17.4303 57.5902 23.0006C60.8052 28.5709 60.805 35.4306 57.5902 41.0006C54.3754 46.5706 48.43 50.0006 42.0002 50.0006C41.0784 50.0045 40.1604 49.9303 39.2541 49.7701C38.7307 49.6764 38.1916 49.7935 37.758 50.0982C37.3205 50.399 37.0237 50.8638 36.9299 51.3873C36.8362 51.9108 36.9534 52.4498 37.2541 52.8834C37.5588 53.3209 38.0237 53.6178 38.5471 53.7076C39.6877 53.9069 40.844 54.0045 42.0002 54.0006C47.8361 54.0045 53.4302 51.6881 57.5592 47.5631C61.6842 43.4381 64.0006 37.8404 64.0006 32.0041C64.0006 26.1721 61.6803 20.5741 57.5514 16.4531L62.2741 15.2343C63.2351 14.9843 63.8679 14.0741 63.7663 13.0898L63.3015 8.65232C63.239 8.06638 62.9226 7.53902 62.4382 7.20702L57.6687 3.94922L57.6726 3.95312C57.1882 3.62109 56.5788 3.51953 56.0164 3.67187L51.7156 4.85157L51.7117 4.85548C50.7586 5.1172 50.1375 6.03908 50.2586 7.01958L50.8406 11.8673H50.8367C48.0555 10.6368 45.0437 10.0001 42.0008 10.0001C40.8641 9.99227 39.7313 10.086 38.6141 10.2813C36.3055 10.629 34.0711 11.3555 32.0008 12.4297C30.1297 11.4649 28.1297 10.7813 26.0633 10.3945L29.2821 6.71873H29.2782C29.9306 5.97264 29.9384 4.86323 29.2978 4.10933L26.4111 0.707029C26.0322 0.257809 25.4736 0 24.8877 0H19.1143C18.5283 0 17.9698 0.257809 17.5909 0.707029L14.7042 4.10933V4.10542C14.0635 4.86323 14.0714 5.97262 14.7237 6.71872L17.9385 10.3906C12.8994 11.3437 8.3526 14.0234 5.0795 17.9687C1.8061 21.9101 0.00919618 26.8749 0.00139618 31.9997L0 32.0004ZM56.18 7.7774L59.4183 9.9883L59.6058 11.7891L54.9964 12.9766L54.43 8.25L56.18 7.7774ZM20.039 4.0001H23.9609L25.1328 5.3829L22 8.9649L18.8672 5.3829L20.039 4.0001ZM21.9999 14.0001C22.9374 14.0001 23.871 14.0704 24.7968 14.2189C25.9023 14.3868 26.9921 14.6642 28.0429 15.0431C22.9531 19.2033 19.9999 25.4261 19.9999 32.0001C19.9999 38.5741 22.953 44.7971 28.0429 48.9571C26.1054 49.6485 24.0585 50.0001 21.9999 50.0001C15.5702 50.0001 9.6249 46.5704 6.4099 41.0001C3.1949 35.4298 3.1951 28.5701 6.4099 23.0001C9.6247 17.4301 15.5701 14.0001 21.9999 14.0001Z" fill="white"/>
</svg>
